<svg aria-hidden="true" style="position: absolute; width: 0; height: 0; overflow: hidden;" version="1.1" xmlns="http://www.w3.org/2000/svg" xmlns:xlink="http://www.w3.org/1999/xlink">
    <defs>

        <symbol id="icon-logo" viewBox="0 0 60 40">
            <path d="m18.51 11.83 5.23.04-2.71-6.25L23.06.51l8.1 18.69h-4.27l-1.78-4.21-7.86-.04 1.26-3.12zM30.45.49l4.2-.03 8.1 18.69h-4.27L30.45.49zM24.65.54l4.2-.03 8.11 18.69h-4.28L24.65.54zM3.36 29.93h-2l-.5 1.43H0l1.91-5.3h.89l1.92 5.3h-.87Zm-1.81-.67h1.6l-.79-2.32ZM9.34 31.36H6.05v-5.3h.83v4.59h2.46ZM14.17 31.36H10.8v-5.3h3.37v.71h-2.55v1.55H14V29h-2.38v1.65h2.55ZM15.76 31.36v-5.3h.83v2.52l2.21-2.52h1l-2.1 2.35 2.3 2.95h-1L17.13 29l-.54.62v1.77ZM21.83 29.88a.86.86 0 0 0 .39.63 1.49 1.49 0 0 0 .87.24 1.36 1.36 0 0 0 .83-.23.68.68 0 0 0 .32-.59.61.61 0 0 0-.23-.5 1.77 1.77 0 0 0-.74-.32l-.69-.17c-.95-.23-1.43-.7-1.43-1.43a1.36 1.36 0 0 1 .54-1.11 2.14 2.14 0 0 1 1.39-.4 2.08 2.08 0 0 1 1.37.43 1.43 1.43 0 0 1 .55 1.08h-.8a.84.84 0 0 0-.35-.62 1.27 1.27 0 0 0-.78-.23 1.33 1.33 0 0 0-.78.22.68.68 0 0 0-.29.58.57.57 0 0 0 .22.46 2 2 0 0 0 .74.3l.58.14a2.55 2.55 0 0 1 1.18.54 1.23 1.23 0 0 1 .36.93 1.41 1.41 0 0 1-.55 1.17 2.37 2.37 0 0 1-1.5.44A2.23 2.23 0 0 1 21.6 31a1.47 1.47 0 0 1-.6-1.12ZM29.5 29.93h-2l-.5 1.43h-.85l1.91-5.3h.89l1.91 5.3H30Zm-1.81-.67h1.6l-.79-2.32ZM32.19 31.36v-5.3h.75L35.68 30v-3.94h.8v5.3h-.74L33 27.45v3.91ZM40.14 26.06a2.44 2.44 0 0 1 1.85.69 2.72 2.72 0 0 1 .66 1.95 2.75 2.75 0 0 1-.66 2 2.45 2.45 0 0 1-1.85.7h-1.9v-5.3Zm-1.07 4.59h1a1.67 1.67 0 0 0 1.3-.5 2.11 2.11 0 0 0 .45-1.44 2.07 2.07 0 0 0-.45-1.44 1.63 1.63 0 0 0-1.3-.5h-1ZM45 31.36h-.83v-5.3h2.09a1.85 1.85 0 0 1 1.29.44 1.51 1.51 0 0 1 .45 1.18 1.65 1.65 0 0 1-.27.94 1.5 1.5 0 0 1-.76.57l1.19 2.17h-1l-1.08-2H45Zm0-2.71h1.18a1.06 1.06 0 0 0 .74-.24.93.93 0 0 0 .26-.71.91.91 0 0 0-.27-.7 1 1 0 0 0-.75-.25H45ZM53.69 26.71a2.85 2.85 0 0 1 .67 2 2.85 2.85 0 0 1-.67 2 2.6 2.6 0 0 1-3.63 0 2.89 2.89 0 0 1-.67-2 2.89 2.89 0 0 1 .67-2 2.6 2.6 0 0 1 3.63 0Zm-3 .53a2.63 2.63 0 0 0 0 2.94 1.59 1.59 0 0 0 2.39 0 2.68 2.68 0 0 0 0-2.94 1.57 1.57 0 0 0-2.39 0ZM57.21 31.36l-1.89-5.3h.89l1.44 4.37 1.45-4.37h.9l-1.89 5.3ZM10.39 38h-2l-.49 1.43H7l1.91-5.3h.89l1.91 5.3h-.87Zm-1.81-.66h1.6L9.39 35ZM13.9 39.45h-.82v-5.3h2.08a1.86 1.86 0 0 1 1.3.44 1.55 1.55 0 0 1 .47 1.18 1.62 1.62 0 0 1-.27.94 1.33 1.33 0 0 1-.76.57l1.19 2.17h-.95l-1.08-2H13.9Zm0-2.7h1.19a1 1 0 0 0 .73-.25.92.92 0 0 0 .27-.71.9.9 0 0 0-.28-.7 1.09 1.09 0 0 0-.75-.25H13.9ZM19 38.8a3.36 3.36 0 0 1 0-4 2.24 2.24 0 0 1 1.77-.74 2.33 2.33 0 0 1 1.52.51 2 2 0 0 1 .71 1.34h-.81a1.4 1.4 0 0 0-.5-.82 1.49 1.49 0 0 0-.93-.31 1.39 1.39 0 0 0-1.16.55 2.32 2.32 0 0 0-.43 1.47 2.28 2.28 0 0 0 .43 1.47 1.39 1.39 0 0 0 1.16.55 1.55 1.55 0 0 0 .93-.27 1.28 1.28 0 0 0 .5-.75H23a2 2 0 0 1-.75 1.28 2.33 2.33 0 0 1-1.5.46A2.24 2.24 0 0 1 19 38.8ZM28 39.45V37.1h-2.72v2.35h-.82v-5.3h.82v2.24H28v-2.24h.82v5.3ZM30.55 39.45v-5.3h.83v5.3ZM34.45 39.45v-4.59H32.8v-.71h4.12v.71h-1.65v4.59ZM41.71 39.45h-3.36v-5.3h3.36v.71h-2.54v1.55h2.41v.68h-2.41v1.65h2.54ZM43.78 38.8a3.36 3.36 0 0 1 0-4 2.24 2.24 0 0 1 1.77-.74 2.33 2.33 0 0 1 1.52.51 2 2 0 0 1 .72 1.34H47a1.4 1.4 0 0 0-.5-.82 1.49 1.49 0 0 0-.93-.31 1.39 1.39 0 0 0-1.16.55A2.32 2.32 0 0 0 44 36.8a2.28 2.28 0 0 0 .43 1.47 1.39 1.39 0 0 0 1.16.55 1.55 1.55 0 0 0 .93-.27 1.32 1.32 0 0 0 .5-.75h.82a2 2 0 0 1-.75 1.28 2.33 2.33 0 0 1-1.5.46 2.24 2.24 0 0 1-1.81-.74ZM50.41 39.45v-4.59h-1.65v-.71h4.12v.71h-1.65v4.59Z" class="cls-1"/>
        </symbol>

        <symbol id="icon-company-logo" viewBox="0 0 60 40">
            <path d="m18.51 11.83 5.23.04-2.71-6.25L23.06.51l8.1 18.69h-4.27l-1.78-4.21-7.86-.04 1.26-3.12zM30.45.49l4.2-.03 8.1 18.69h-4.27L30.45.49zM24.65.54l4.2-.03 8.11 18.69h-4.28L24.65.54zM3.36 29.93h-2l-.5 1.43H0l1.91-5.3h.89l1.92 5.3h-.87Zm-1.81-.67h1.6l-.79-2.32ZM9.34 31.36H6.05v-5.3h.83v4.59h2.46ZM14.17 31.36H10.8v-5.3h3.37v.71h-2.55v1.55H14V29h-2.38v1.65h2.55ZM15.76 31.36v-5.3h.83v2.52l2.21-2.52h1l-2.1 2.35 2.3 2.95h-1L17.13 29l-.54.62v1.77ZM21.83 29.88a.86.86 0 0 0 .39.63 1.49 1.49 0 0 0 .87.24 1.36 1.36 0 0 0 .83-.23.68.68 0 0 0 .32-.59.61.61 0 0 0-.23-.5 1.77 1.77 0 0 0-.74-.32l-.69-.17c-.95-.23-1.43-.7-1.43-1.43a1.36 1.36 0 0 1 .54-1.11 2.14 2.14 0 0 1 1.39-.4 2.08 2.08 0 0 1 1.37.43 1.43 1.43 0 0 1 .55 1.08h-.8a.84.84 0 0 0-.35-.62 1.27 1.27 0 0 0-.78-.23 1.33 1.33 0 0 0-.78.22.68.68 0 0 0-.29.58.57.57 0 0 0 .22.46 2 2 0 0 0 .74.3l.58.14a2.55 2.55 0 0 1 1.18.54 1.23 1.23 0 0 1 .36.93 1.41 1.41 0 0 1-.55 1.17 2.37 2.37 0 0 1-1.5.44A2.23 2.23 0 0 1 21.6 31a1.47 1.47 0 0 1-.6-1.12ZM29.5 29.93h-2l-.5 1.43h-.85l1.91-5.3h.89l1.91 5.3H30Zm-1.81-.67h1.6l-.79-2.32ZM32.19 31.36v-5.3h.75L35.68 30v-3.94h.8v5.3h-.74L33 27.45v3.91ZM40.14 26.06a2.44 2.44 0 0 1 1.85.69 2.72 2.72 0 0 1 .66 1.95 2.75 2.75 0 0 1-.66 2 2.45 2.45 0 0 1-1.85.7h-1.9v-5.3Zm-1.07 4.59h1a1.67 1.67 0 0 0 1.3-.5 2.11 2.11 0 0 0 .45-1.44 2.07 2.07 0 0 0-.45-1.44 1.63 1.63 0 0 0-1.3-.5h-1ZM45 31.36h-.83v-5.3h2.09a1.85 1.85 0 0 1 1.29.44 1.51 1.51 0 0 1 .45 1.18 1.65 1.65 0 0 1-.27.94 1.5 1.5 0 0 1-.76.57l1.19 2.17h-1l-1.08-2H45Zm0-2.71h1.18a1.06 1.06 0 0 0 .74-.24.93.93 0 0 0 .26-.71.91.91 0 0 0-.27-.7 1 1 0 0 0-.75-.25H45ZM53.69 26.71a2.85 2.85 0 0 1 .67 2 2.85 2.85 0 0 1-.67 2 2.6 2.6 0 0 1-3.63 0 2.89 2.89 0 0 1-.67-2 2.89 2.89 0 0 1 .67-2 2.6 2.6 0 0 1 3.63 0Zm-3 .53a2.63 2.63 0 0 0 0 2.94 1.59 1.59 0 0 0 2.39 0 2.68 2.68 0 0 0 0-2.94 1.57 1.57 0 0 0-2.39 0ZM57.21 31.36l-1.89-5.3h.89l1.44 4.37 1.45-4.37h.9l-1.89 5.3ZM10.39 38h-2l-.49 1.43H7l1.91-5.3h.89l1.91 5.3h-.87Zm-1.81-.66h1.6L9.39 35ZM13.9 39.45h-.82v-5.3h2.08a1.86 1.86 0 0 1 1.3.44 1.55 1.55 0 0 1 .47 1.18 1.62 1.62 0 0 1-.27.94 1.33 1.33 0 0 1-.76.57l1.19 2.17h-.95l-1.08-2H13.9Zm0-2.7h1.19a1 1 0 0 0 .73-.25.92.92 0 0 0 .27-.71.9.9 0 0 0-.28-.7 1.09 1.09 0 0 0-.75-.25H13.9ZM19 38.8a3.36 3.36 0 0 1 0-4 2.24 2.24 0 0 1 1.77-.74 2.33 2.33 0 0 1 1.52.51 2 2 0 0 1 .71 1.34h-.81a1.4 1.4 0 0 0-.5-.82 1.49 1.49 0 0 0-.93-.31 1.39 1.39 0 0 0-1.16.55 2.32 2.32 0 0 0-.43 1.47 2.28 2.28 0 0 0 .43 1.47 1.39 1.39 0 0 0 1.16.55 1.55 1.55 0 0 0 .93-.27 1.28 1.28 0 0 0 .5-.75H23a2 2 0 0 1-.75 1.28 2.33 2.33 0 0 1-1.5.46A2.24 2.24 0 0 1 19 38.8ZM28 39.45V37.1h-2.72v2.35h-.82v-5.3h.82v2.24H28v-2.24h.82v5.3ZM30.55 39.45v-5.3h.83v5.3ZM34.45 39.45v-4.59H32.8v-.71h4.12v.71h-1.65v4.59ZM41.71 39.45h-3.36v-5.3h3.36v.71h-2.54v1.55h2.41v.68h-2.41v1.65h2.54ZM43.78 38.8a3.36 3.36 0 0 1 0-4 2.24 2.24 0 0 1 1.77-.74 2.33 2.33 0 0 1 1.52.51 2 2 0 0 1 .72 1.34H47a1.4 1.4 0 0 0-.5-.82 1.49 1.49 0 0 0-.93-.31 1.39 1.39 0 0 0-1.16.55A2.32 2.32 0 0 0 44 36.8a2.28 2.28 0 0 0 .43 1.47 1.39 1.39 0 0 0 1.16.55 1.55 1.55 0 0 0 .93-.27 1.32 1.32 0 0 0 .5-.75h.82a2 2 0 0 1-.75 1.28 2.33 2.33 0 0 1-1.5.46 2.24 2.24 0 0 1-1.81-.74ZM50.41 39.45v-4.59h-1.65v-.71h4.12v.71h-1.65v4.59Z" class="cls-1"/>
        </symbol>

        <symbol id="icon-menu-open" viewBox="0 0 48 48">
            <path d="M48 48H0c-1.3 0-2.4-1.1-2.4-2.4s1.1-2.4 2.4-2.4h48c1.3 0 2.4 1.1 2.4 2.4S49.3 48 48 48zm0-14.4H0c-1.3 0-2.4-1.1-2.4-2.4s1.1-2.4 2.4-2.4h48c1.3 0 2.4 1.1 2.4 2.4s-1.1 2.4-2.4 2.4zm0-14.4H0c-1.3 0-2.4-1.1-2.4-2.4s1.1-2.4 2.4-2.4h48c1.3 0 2.4 1.1 2.4 2.4s-1.1 2.4-2.4 2.4zm0-14.4H0c-1.3 0-2.4-1.1-2.4-2.4S-1.3 0 0 0h48c1.3 0 2.4 1.1 2.4 2.4S49.3 4.8 48 4.8z"/>
        </symbol>

        <symbol id="icon-menu-close" viewBox="0 0 512 512">
            <path fill="none" stroke="currentColor" stroke-linecap="round" stroke-linejoin="round" stroke-width="32" d="M368 368L144 144M368 144L144 368"/>
        </symbol>

        <symbol id="icon-telegram" viewBox="0 0 512 512">
            <path d="M256 0c-141.4 0-256 114.6-256 256s114.6 256 256 256 256-114.6 256-256-114.6-256-256-256zM381.8 175.5l-42 197.9c-2.9 14.1-11.4 17.4-23.2 10.9l-64-47.3-30.7 29.9c-3.6 3.5-6.4 6.4-12.8 6.4-8.3 0-6.9-3.1-9.7-11l-21.8-71.6-63.3-19.7c-13.7-4.2-13.8-13.6 3.1-20.3l246.6-95.2c11.2-5.1 22.1 2.7 17.8 20z"/>
        </symbol>

        <symbol id="icon-instagram" viewBox="0 0 512 512">
            <path d="M349.33 69.33a93.62 93.62 0 0193.34 93.34v186.66a93.62 93.62 0 01-93.34 93.34H162.67a93.62 93.62 0 01-93.34-93.34V162.67a93.62 93.62 0 0193.34-93.34h186.66m0-37.33H162.67C90.8 32 32 90.8 32 162.67v186.66C32 421.2 90.8 480 162.67 480h186.66C421.2 480 480 421.2 480 349.33V162.67C480 90.8 421.2 32 349.33 32z"/><path d="M377.33 162.67a28 28 0 1128-28 27.94 27.94 0 01-28 28zM256 181.33A74.67 74.67 0 11181.33 256 74.75 74.75 0 01256 181.33m0-37.33a112 112 0 10112 112 112 112 0 00-112-112z"/>
        </symbol>

        <symbol id="icon-whatsapp" viewBox="0 0 512 512">
            <path d="M414.73 97.1A222.14 222.14 0 00256.94 32C134 32 33.92 131.58 33.87 254a220.61 220.61 0 0029.78 111L32 480l118.25-30.87a223.63 223.63 0 00106.6 27h.09c122.93 0 223-99.59 223.06-222A220.18 220.18 0 00414.73 97.1zM256.94 438.66h-.08a185.75 185.75 0 01-94.36-25.72l-6.77-4-70.17 18.32 18.73-68.09-4.41-7A183.46 183.46 0 0171.53 254c0-101.73 83.21-184.5 185.48-184.5a185 185 0 01185.33 184.64c-.04 101.74-83.21 184.52-185.4 184.52zm101.69-138.19c-5.57-2.78-33-16.2-38.08-18.05s-8.83-2.78-12.54 2.78-14.4 18-17.65 21.75-6.5 4.16-12.07 1.38-23.54-8.63-44.83-27.53c-16.57-14.71-27.75-32.87-31-38.42s-.35-8.56 2.44-11.32c2.51-2.49 5.57-6.48 8.36-9.72s3.72-5.56 5.57-9.26.93-6.94-.46-9.71-12.54-30.08-17.18-41.19c-4.53-10.82-9.12-9.35-12.54-9.52-3.25-.16-7-.2-10.69-.2a20.53 20.53 0 00-14.86 6.94c-5.11 5.56-19.51 19-19.51 46.28s20 53.68 22.76 57.38 39.3 59.73 95.21 83.76a323.11 323.11 0 0031.78 11.68c13.35 4.22 25.5 3.63 35.1 2.2 10.71-1.59 33-13.42 37.63-26.38s4.64-24.06 3.25-26.37-5.11-3.71-10.69-6.48z" fill-rule="evenodd"/>
        </symbol>

    <defs>
</svg>