<svg aria-hidden="true" style="position: absolute; width: 0; height: 0; overflow: hidden;" version="1.1" xmlns="http://www.w3.org/2000/svg" xmlns:xlink="http://www.w3.org/1999/xlink">
    <defs>

        <symbol id="icon-logo" viewBox="0 0 60 40">
            <path d="m18.51 11.83 5.23.04-2.71-6.25L23.06.51l8.1 18.69h-4.27l-1.78-4.21-7.86-.04 1.26-3.12zM30.45.49l4.2-.03 8.1 18.69h-4.27L30.45.49zM24.65.54l4.2-.03 8.11 18.69h-4.28L24.65.54zM3.36 29.93h-2l-.5 1.43H0l1.91-5.3h.89l1.92 5.3h-.87Zm-1.81-.67h1.6l-.79-2.32ZM9.34 31.36H6.05v-5.3h.83v4.59h2.46ZM14.17 31.36H10.8v-5.3h3.37v.71h-2.55v1.55H14V29h-2.38v1.65h2.55ZM15.76 31.36v-5.3h.83v2.52l2.21-2.52h1l-2.1 2.35 2.3 2.95h-1L17.13 29l-.54.62v1.77ZM21.83 29.88a.86.86 0 0 0 .39.63 1.49 1.49 0 0 0 .87.24 1.36 1.36 0 0 0 .83-.23.68.68 0 0 0 .32-.59.61.61 0 0 0-.23-.5 1.77 1.77 0 0 0-.74-.32l-.69-.17c-.95-.23-1.43-.7-1.43-1.43a1.36 1.36 0 0 1 .54-1.11 2.14 2.14 0 0 1 1.39-.4 2.08 2.08 0 0 1 1.37.43 1.43 1.43 0 0 1 .55 1.08h-.8a.84.84 0 0 0-.35-.62 1.27 1.27 0 0 0-.78-.23 1.33 1.33 0 0 0-.78.22.68.68 0 0 0-.29.58.57.57 0 0 0 .22.46 2 2 0 0 0 .74.3l.58.14a2.55 2.55 0 0 1 1.18.54 1.23 1.23 0 0 1 .36.93 1.41 1.41 0 0 1-.55 1.17 2.37 2.37 0 0 1-1.5.44A2.23 2.23 0 0 1 21.6 31a1.47 1.47 0 0 1-.6-1.12ZM29.5 29.93h-2l-.5 1.43h-.85l1.91-5.3h.89l1.91 5.3H30Zm-1.81-.67h1.6l-.79-2.32ZM32.19 31.36v-5.3h.75L35.68 30v-3.94h.8v5.3h-.74L33 27.45v3.91ZM40.14 26.06a2.44 2.44 0 0 1 1.85.69 2.72 2.72 0 0 1 .66 1.95 2.75 2.75 0 0 1-.66 2 2.45 2.45 0 0 1-1.85.7h-1.9v-5.3Zm-1.07 4.59h1a1.67 1.67 0 0 0 1.3-.5 2.11 2.11 0 0 0 .45-1.44 2.07 2.07 0 0 0-.45-1.44 1.63 1.63 0 0 0-1.3-.5h-1ZM45 31.36h-.83v-5.3h2.09a1.85 1.85 0 0 1 1.29.44 1.51 1.51 0 0 1 .45 1.18 1.65 1.65 0 0 1-.27.94 1.5 1.5 0 0 1-.76.57l1.19 2.17h-1l-1.08-2H45Zm0-2.71h1.18a1.06 1.06 0 0 0 .74-.24.93.93 0 0 0 .26-.71.91.91 0 0 0-.27-.7 1 1 0 0 0-.75-.25H45ZM53.69 26.71a2.85 2.85 0 0 1 .67 2 2.85 2.85 0 0 1-.67 2 2.6 2.6 0 0 1-3.63 0 2.89 2.89 0 0 1-.67-2 2.89 2.89 0 0 1 .67-2 2.6 2.6 0 0 1 3.63 0Zm-3 .53a2.63 2.63 0 0 0 0 2.94 1.59 1.59 0 0 0 2.39 0 2.68 2.68 0 0 0 0-2.94 1.57 1.57 0 0 0-2.39 0ZM57.21 31.36l-1.89-5.3h.89l1.44 4.37 1.45-4.37h.9l-1.89 5.3ZM10.39 38h-2l-.49 1.43H7l1.91-5.3h.89l1.91 5.3h-.87Zm-1.81-.66h1.6L9.39 35ZM13.9 39.45h-.82v-5.3h2.08a1.86 1.86 0 0 1 1.3.44 1.55 1.55 0 0 1 .47 1.18 1.62 1.62 0 0 1-.27.94 1.33 1.33 0 0 1-.76.57l1.19 2.17h-.95l-1.08-2H13.9Zm0-2.7h1.19a1 1 0 0 0 .73-.25.92.92 0 0 0 .27-.71.9.9 0 0 0-.28-.7 1.09 1.09 0 0 0-.75-.25H13.9ZM19 38.8a3.36 3.36 0 0 1 0-4 2.24 2.24 0 0 1 1.77-.74 2.33 2.33 0 0 1 1.52.51 2 2 0 0 1 .71 1.34h-.81a1.4 1.4 0 0 0-.5-.82 1.49 1.49 0 0 0-.93-.31 1.39 1.39 0 0 0-1.16.55 2.32 2.32 0 0 0-.43 1.47 2.28 2.28 0 0 0 .43 1.47 1.39 1.39 0 0 0 1.16.55 1.55 1.55 0 0 0 .93-.27 1.28 1.28 0 0 0 .5-.75H23a2 2 0 0 1-.75 1.28 2.33 2.33 0 0 1-1.5.46A2.24 2.24 0 0 1 19 38.8ZM28 39.45V37.1h-2.72v2.35h-.82v-5.3h.82v2.24H28v-2.24h.82v5.3ZM30.55 39.45v-5.3h.83v5.3ZM34.45 39.45v-4.59H32.8v-.71h4.12v.71h-1.65v4.59ZM41.71 39.45h-3.36v-5.3h3.36v.71h-2.54v1.55h2.41v.68h-2.41v1.65h2.54ZM43.78 38.8a3.36 3.36 0 0 1 0-4 2.24 2.24 0 0 1 1.77-.74 2.33 2.33 0 0 1 1.52.51 2 2 0 0 1 .72 1.34H47a1.4 1.4 0 0 0-.5-.82 1.49 1.49 0 0 0-.93-.31 1.39 1.39 0 0 0-1.16.55A2.32 2.32 0 0 0 44 36.8a2.28 2.28 0 0 0 .43 1.47 1.39 1.39 0 0 0 1.16.55 1.55 1.55 0 0 0 .93-.27 1.32 1.32 0 0 0 .5-.75h.82a2 2 0 0 1-.75 1.28 2.33 2.33 0 0 1-1.5.46 2.24 2.24 0 0 1-1.81-.74ZM50.41 39.45v-4.59h-1.65v-.71h4.12v.71h-1.65v4.59Z" class="cls-1"/>
        </symbol>

        <symbol id="icon-company-logo" viewBox="0 0 44 32">
            <path d="m2.38 19.42 8.93.06L6.69 8.82 10.15.09 23.98 32h-7.29l-3.04-7.19-13.42-.06zM22.76.06 29.94 0l13.83 31.91h-7.29zM12.87.14l7.17-.05L33.88 32h-7.3z" class="st0"/>
        </symbol>

        <symbol id="icon-menu-open" viewBox="0 0 48 48">
            <path d="M48 48H0c-1.3 0-2.4-1.1-2.4-2.4s1.1-2.4 2.4-2.4h48c1.3 0 2.4 1.1 2.4 2.4S49.3 48 48 48zm0-14.4H0c-1.3 0-2.4-1.1-2.4-2.4s1.1-2.4 2.4-2.4h48c1.3 0 2.4 1.1 2.4 2.4s-1.1 2.4-2.4 2.4zm0-14.4H0c-1.3 0-2.4-1.1-2.4-2.4s1.1-2.4 2.4-2.4h48c1.3 0 2.4 1.1 2.4 2.4s-1.1 2.4-2.4 2.4zm0-14.4H0c-1.3 0-2.4-1.1-2.4-2.4S-1.3 0 0 0h48c1.3 0 2.4 1.1 2.4 2.4S49.3 4.8 48 4.8z"/>
        </symbol>

        <symbol id="icon-menu-close" viewBox="0 0 48 48">
            <path d="M45 48c-.8 0-1.5-.3-2.1-.9L24 28.2 5.1 47.1c-1.2 1.2-3.1 1.2-4.2 0-1.2-1.2-1.2-3.1 0-4.2L19.8 24 .9 5.1C-.3 3.9-.3 2 .9.9 2.1-.3 4-.3 5.1.9L24 19.8 42.9.9C44.1-.3 46-.3 47.1.9c1.2 1.2 1.2 3.1 0 4.2L28.2 24l18.9 18.9c1.2 1.2 1.2 3.1 0 4.2-.6.6-1.3.9-2.1.9z"/>
        </symbol>

        <symbol id="icon-telegram" viewBox="0 0 48 48">
            <path d="M39.2 10c1.7 0 2.1 1.3 1.6 4.3-.6 3.4-2.2 14.8-3.5 21.8-.5 2.7-1.4 3.9-2.7 3.9-.7 0-1.6-.4-2.5-1-1.3-.9-8-5.3-9.4-6.3-1.3-.9-3.1-2.1-.9-4.3.8-.8 6.1-5.9 10.3-9.8.4-.4.1-1.1-.4-1.1-.1 0-.2 0-.3.1-5.6 3.7-13.4 8.9-14.3 9.5-1 .7-1.9 1.1-3.2 1.1-.7 0-1.4-.1-2.3-.4-1.9-.6-3.8-1.2-4.6-1.5-2.8-1-2.2-2.2.6-3.5C18.5 18 32.8 12.1 34.8 11.3c1.9-.8 3.4-1.3 4.4-1.3m0-3c-1.4 0-3 .4-5.5 1.5l-.3.1C22.7 13 13.1 17.1 6.2 20.2c-1.1.5-4.3 1.9-4.2 4.9.1 1.3.8 3.1 3.9 4.1l.2.1c.9.3 2.7.9 4.5 1.4 1.1.3 2.1.5 3.1.5 1.7 0 3-.5 4-1v.5c.2 2.3 2 3.6 3 4.3l.1.1c1.6 1.1 8.7 5.8 9.5 6.4 1.5 1 2.9 1.5 4.2 1.5 2.1 0 4.7-1.1 5.7-6.3.9-5 2-11.9 2.8-16.9.3-2.2.6-3.9.8-5 .3-2.1.5-4.5-.9-6.2-.7-.7-1.8-1.6-3.7-1.6z"/>
        </symbol>

        <symbol id="icon-instagram" viewBox="0 0 48 48">
            <path d="M16.5 5C10.2 5 5 10.2 5 16.5v15C5 37.8 10.2 43 16.5 43h15C37.8 43 43 37.8 43 31.5v-15C43 10.2 37.8 5 31.5 5h-15zm0 3h15c4.7 0 8.5 3.8 8.5 8.5v15c0 4.7-3.8 8.5-8.5 8.5h-15C11.8 40 8 36.2 8 31.5v-15C8 11.8 11.8 8 16.5 8zM34 12c-1.1 0-2 .9-2 2s.9 2 2 2 2-.9 2-2-.9-2-2-2zm-10 2c-5.5 0-10 4.5-10 10s4.5 10 10 10 10-4.5 10-10-4.5-10-10-10zm0 3c3.9 0 7 3.1 7 7s-3.1 7-7 7-7-3.1-7-7 3.1-7 7-7z"/>
        </symbol>

        <symbol id="icon-whatsapp" viewBox="0 0 48 48">
            <path d="M24 4C13 4 4 13 4 24c0 3.3.9 6.3 2.3 9.1l-2.2 7.8c-.5 1.8 1.3 3.6 3.1 3.1l7.8-2.2c2.7 1.4 5.8 2.3 9.1 2.3 11 0 20-9 20-20S35 4 24 4zm0 3c9.4 0 17 7.6 17 17s-7.6 17-17 17c-3 0-5.8-.8-8.3-2.1-.3-.2-.8-.2-1.1-.1l-7.4 2.1 2.1-7.4c.1-.4.1-.8-.1-1.1C7.8 29.8 7 27 7 24c0-9.4 7.6-17 17-17zm-6.8 8c-.3 0-.8.1-1.3.6-.4.5-1.7 1.6-1.7 4s1.7 4.6 1.9 4.9c.2.3 3.3 5.3 8.2 7.2 4 1.6 4.9 1.3 5.7 1.2.9-.1 2.8-1.2 3.2-2.3.4-1.1.4-2.1.3-2.3-.1-.2-.4-.3-.9-.6-.5-.2-2.8-1.4-3.3-1.6s-.8-.2-1.1.2c-.3.5-1.2 1.6-1.5 1.9-.3.3-.6.4-1 .1-.5-.2-2-.7-3.8-2.4-1.4-1.3-2.4-2.8-2.7-3.3-.3-.5 0-.7.2-1 .2-.2.5-.6.7-.8.2-.3.3-.5.5-.8.2-.3.1-.6 0-.8s-1-2.6-1.5-3.5c-.2-.7-.6-.7-.9-.7h-1z"/>
        </symbol>

    <defs>
</svg>